<?xml version="1.0" encoding="utf-8"?>
<!-- Generator: Adobe Illustrator 26.0.3, SVG Export Plug-In . SVG Version: 6.00 Build 0)  -->
<svg version="1.1" id="Layer_1" xmlns="http://www.w3.org/2000/svg" xmlns:xlink="http://www.w3.org/1999/xlink" x="0px" y="0px"
	 viewBox="0 0 484.6 471.9" style="enable-background:new 0 0 484.6 471.9;" xml:space="preserve">
<path d="M16.1,203.8H46c-9.1-12.6-14.4-28.1-14.4-44.8c0-42.4,34.5-77,77-77c18.9,0,36.1,6.8,49.5,18.1
	c13.6-43.3,53.9-73.2,99.7-73.2c57.6,0,104.5,46.9,104.5,104.5c0,28-11.1,53.5-29.1,72.3h29.7c8.9,0,16.1,7.2,16.1,16.1v26.4
	l81.4-40.3c10.6-6.2,24.2,1.3,24.2,13.9v209c-0.2,11.7-12.3,19.8-23.2,14.4L379,402.5v26.4c0,8.9-7.2,16.1-16.1,16.1H16.1
	C7.2,445,0,437.7,0,428.9v-209C0,211,7.2,203.8,16.1,203.8L16.1,203.8z M215.9,260.1c17.1,0,17.1,26.1,0,26.1h-13.5
	c-17.1,0-17.1-26.1,0-26.1H215.9z M54.6,286.2c-17.1,0-17.2-26.1,0-26.1h104.5c17.1,0,17.1,26.1,0,26.1H54.6z M175.9,196.3
	c-1.4,2.6-3,5.1-4.8,7.5h11.3C180.1,201.4,177.9,198.9,175.9,196.3L175.9,196.3z M257.8,203.8c40,0,72.3-32.3,72.3-72.3
	c0-40-32.3-72.3-72.3-72.3c-40,0-72.3,32.3-72.3,72.3C185.5,171.5,217.8,203.8,257.8,203.8z M108.5,203.8c24.8,0,44.8-20,44.8-44.8
	s-20-44.8-44.8-44.8c-24.8,0-44.8,20-44.8,44.8S83.7,203.8,108.5,203.8z M379,282.1v84.6l73.5,36.3V245.7L379,282.1L379,282.1z
	 M346.8,236H32.2v176.8h314.6V236z"/>
</svg>
