<?xml version="1.0" encoding="utf-8"?>
<!-- Generator: Adobe Illustrator 26.0.3, SVG Export Plug-In . SVG Version: 6.00 Build 0)  -->
<svg version="1.1" id="Layer_1" xmlns="http://www.w3.org/2000/svg" xmlns:xlink="http://www.w3.org/1999/xlink" x="0px" y="0px"
	 viewBox="0 0 484.6 471.9" style="enable-background:new 0 0 484.6 471.9;" xml:space="preserve">
<style type="text/css">
	.st0{fill-rule:evenodd;clip-rule:evenodd;}
</style>
<path class="st0" d="M65.9,16.3h352.8c23.7,0,43,19.4,43,43v218.5c0,23.7-19.4,43-43,43H65.9c-23.7,0-43-19.4-43-43V59.3
	C22.9,35.7,42.3,16.3,65.9,16.3L65.9,16.3z M215.1,159.2c0,23.3-35.4,23.3-35.4,0v-50.6c0-14.3,16-22.5,27.6-14.7l93.4,53.9
	c12.3,7.1,11.4,24.9-1,31.1l-103.1,59.5c-20.1,11.5-37.6-19-17.6-30.6l77.5-44.7l-41.4-23.9L215.1,159.2L215.1,159.2z M17.5,455.6
	c-23.3,0-23.3-35.4,0-35.4h449.7c23.3,0,23.3,35.4,0,35.4H17.5z M72.9,389.3c-23.3,0-23.3-35.4,0-35.4h338.8
	c23.3,0,23.3,35.4,0,35.4H72.9z"/>
</svg>
