<?xml version="1.0" encoding="utf-8"?>
<!-- Generator: Adobe Illustrator 26.0.3, SVG Export Plug-In . SVG Version: 6.00 Build 0)  -->
<svg version="1.1" id="Layer_1" xmlns="http://www.w3.org/2000/svg" xmlns:xlink="http://www.w3.org/1999/xlink" x="0px" y="0px"
	 viewBox="0 0 484.6 471.9" style="enable-background:new 0 0 484.6 471.9;" xml:space="preserve">
<g>
	<path d="M175.8,244.6c0-14.1-5.5-27.6-15.4-37.6c-9.9-10-23.4-15.6-37.5-15.6c-14.1,0-27.6,5.5-37.6,15.5
		c-10,9.9-15.6,23.4-15.6,37.5c0,14.1,5.6,27.6,15.5,37.5s23.4,15.6,37.5,15.6c14,0,27.5-5.6,37.4-15.5
		C170.1,272,175.7,258.6,175.8,244.6z M122.8,256.4L122.8,256.4c-4.9,0-9.3-2.9-11.1-7.4c-1.9-4.5-0.8-9.7,2.6-13.1
		c3.4-3.4,8.6-4.5,13.1-2.6c4.5,1.9,7.4,6.3,7.4,11.1C134.8,251,129.4,256.4,122.8,256.4z"/>
	<path d="M257,207.1c-9.9,9.9-15.5,23.4-15.6,37.5c0,14.1,5.6,27.6,15.5,37.5c9.9,9.9,23.4,15.5,37.5,15.5
		c14.1,0,27.6-5.6,37.5-15.5c9.9-9.9,15.5-23.4,15.5-37.5c0-14.1-5.6-27.6-15.5-37.5c-9.9-9.9-23.4-15.5-37.5-15.5
		C280.4,191.5,267,197.1,257,207.1z M306.5,244.6L306.5,244.6c0.1,4.9-2.9,9.3-7.4,11.1c-4.5,1.9-9.7,0.8-13.1-2.6
		c-3.4-3.4-4.5-8.6-2.6-13.1c1.9-4.5,6.3-7.4,11.1-7.4C301.2,232.6,306.5,237.9,306.5,244.6z"/>
	<path d="M208.6,211.8c14.1,0,27.6-5.6,37.5-15.5c9.9-9.9,15.5-23.4,15.5-37.5c0-14.1-5.6-27.6-15.5-37.5
		c-9.9-9.9-23.4-15.5-37.5-15.5c-14.1,0-27.6,5.6-37.5,15.5c-9.9,9.9-15.5,23.4-15.5,37.5c0,14.1,5.6,27.5,15.6,37.5
		C181.1,206.1,194.5,211.7,208.6,211.8z M208.6,146.6L208.6,146.6c4.9,0,9.3,2.9,11.1,7.4c1.9,4.5,0.8,9.7-2.6,13.1
		c-3.4,3.4-8.6,4.5-13.1,2.6c-4.5-1.9-7.4-6.3-7.4-11.1C196.6,152,202,146.6,208.6,146.6z"/>
	<path d="M208.6,277.4L208.6,277.4c-14.1,0-27.5,5.6-37.5,15.6c-9.9,9.9-15.5,23.4-15.5,37.5c0,14.1,5.6,27.6,15.5,37.5
		c9.9,9.9,23.4,15.5,37.5,15.5c14.1,0,27.6-5.6,37.5-15.5c10-9.9,15.5-23.4,15.6-37.5c0-14.1-5.6-27.6-15.6-37.5
		C236.2,283,222.7,277.4,208.6,277.4z M208.6,342.5L208.6,342.5L208.6,342.5c-4.9,0-9.3-2.9-11.1-7.4c-1.9-4.5-0.8-9.7,2.6-13.1
		c3.4-3.4,8.6-4.5,13.1-2.6c4.5,1.9,7.4,6.3,7.4,11.1C220.6,337.1,215.2,342.5,208.6,342.5z"/>
	<path d="M481.9,28.9c-3.7-6.3-10.4-10.3-17.8-10.3l0-0.2c-23.2,0-45.5,9.3-61.9,25.7c-16.4,16.4-25.7,38.7-25.7,61.9v14.4
		C347,80.6,304.2,52.5,255.8,41.3c-48.3-11.2-99.1-4.8-143.2,18C68.6,82.2,34.1,120,15.4,166S-5,263.1,10.5,310.2
		c15.6,47.1,47.4,87.2,89.8,112.9c42.4,25.8,92.6,35.6,141.6,27.7c49-7.9,93.6-33,125.7-70.8c32.2-37.8,49.8-85.8,49.8-135.4V106.2
		c0-12.4,4.9-24.2,13.7-32.9c8.7-8.7,20.6-13.6,32.9-13.7c7.3,0,14.1-3.9,17.8-10.2C485.5,43,485.5,35.2,481.9,28.9z M327.3,363.2
		c-31.5,31.5-74.2,49.2-118.7,49.2l0,0c-44.5,0-87.2-17.7-118.7-49.2c-31.5-31.5-49.2-74.2-49.2-118.7c0-44.5,17.7-87.2,49.2-118.7
		c31.5-31.5,74.2-49.2,118.7-49.2s87.2,17.7,118.7,49.2c31.5,31.5,49.2,74.2,49.2,118.7C376.5,289.1,358.8,331.8,327.3,363.2z"/>
</g>
</svg>
