<?xml version="1.0" encoding="utf-8"?>
<!-- Generator: Adobe Illustrator 26.0.3, SVG Export Plug-In . SVG Version: 6.00 Build 0)  -->
<svg version="1.1" id="Layer_1" xmlns="http://www.w3.org/2000/svg" xmlns:xlink="http://www.w3.org/1999/xlink" x="0px" y="0px"
	 viewBox="0 0 484.6 471.9" style="enable-background:new 0 0 484.6 471.9;" xml:space="preserve">
<g>
	<path d="M65.2,384.3c-31.3,0-56.7,25.5-56.7,56.7c0,8.6,7,15.7,15.7,15.7s15.7-7,15.7-15.7c0-14,11.4-25.4,25.4-25.4
		c14,0,25.4,11.4,25.4,25.4c0,8.6,7,15.7,15.6,15.7c8.6,0,15.7-7,15.7-15.7C121.9,409.8,96.5,384.3,65.2,384.3z"/>
	<path d="M183.3,384.3c-31.3,0-56.7,25.5-56.7,56.7c0,8.6,7,15.7,15.7,15.7c8.6,0,15.7-7,15.7-15.7c0-14,11.4-25.4,25.4-25.4
		c14,0,25.4,11.4,25.4,25.4c0,8.6,7,15.7,15.7,15.7s15.6-7,15.6-15.7C240,409.8,214.5,384.3,183.3,384.3z"/>
	<path d="M301.9,384.3c-31.3,0-56.7,25.5-56.7,56.7c0,8.6,7,15.7,15.7,15.7c8.6,0,15.7-7,15.7-15.7c0-14,11.4-25.4,25.4-25.4
		c14,0,25.4,11.4,25.4,25.4c0,8.6,7,15.7,15.7,15.7s15.6-7,15.6-15.7C358.6,409.8,333.1,384.3,301.9,384.3z"/>
	<path d="M419.4,384.3c-31.3,0-56.7,25.5-56.7,56.7c0,8.6,7,15.7,15.7,15.7s15.6-7,15.6-15.7c0-14,11.4-25.4,25.4-25.4
		c14,0,25.4,11.4,25.4,25.4c0,8.6,7,15.7,15.6,15.7s15.7-7,15.7-15.7C476.2,409.8,450.7,384.3,419.4,384.3z"/>
	<path d="M149.6,351.2c0,8.6,7,15.7,15.7,15.7c8.6,0,15.7-7,15.7-15.8c-0.3-15.1-6.3-29.3-16.8-40c-10.7-10.7-24.8-16.7-39.9-16.7
		c-31.3,0-56.7,25.5-56.7,56.7c0,8.6,7,15.7,15.6,15.7s15.7-7,15.7-15.7c0-14,11.4-25.4,25.4-25.4
		C138.2,325.8,149.6,337.2,149.6,351.2z"/>
	<path d="M267.7,351.2c0,8.6,7,15.7,15.6,15.7c8.6,0,15.7-7,15.7-15.7c0-31.3-25.4-56.7-56.7-56.7c-31.3,0-56.7,25.5-56.7,56.7
		c0,8.6,7,15.7,15.7,15.7c8.6,0,15.6-7,15.6-15.7c0-14,11.4-25.4,25.4-25.4C256.3,325.8,267.7,337.2,267.7,351.2z"/>
	<path d="M386.3,351.2c0,8.6,7,15.7,15.6,15.7s15.7-7,15.7-15.7c0-31.3-25.4-56.7-56.7-56.7c-31.3,0-56.7,25.5-56.7,56.7
		c0,8.6,7,15.7,15.7,15.7c8.6,0,15.6-7,15.6-15.7c0-14,11.4-25.4,25.4-25.4C374.9,325.8,386.3,337.2,386.3,351.2z"/>
	<path d="M24.1,255.5H460c8.6,0,15.6-7,15.6-15.7V31c0.3-4-1-7.9-3.8-10.9c-2.9-3.2-7-5-11.3-5H24.1c-8.6,0-15.7,7-15.7,15.6v209
		C8.4,248.4,15.5,255.5,24.1,255.5z M39.8,46.5h404.6v177.7H39.8V46.5z"/>
</g>
</svg>
