<?xml version="1.0" encoding="utf-8"?>
<!-- Generator: Adobe Illustrator 26.0.3, SVG Export Plug-In . SVG Version: 6.00 Build 0)  -->
<svg version="1.1" id="Layer_1" xmlns="http://www.w3.org/2000/svg" xmlns:xlink="http://www.w3.org/1999/xlink" x="0px" y="0px"
	 viewBox="0 0 484.6 471.9" style="enable-background:new 0 0 484.6 471.9;" xml:space="preserve">
<path d="M174,165L174,165L174,165L174,165z M366.5,161.4c-1.3-1.3-2.8-2.4-4.4-3.4c-4.6-2.7-10.1-3.4-15.3-1.9
	c-5.1,1.5-9.4,5.1-11.8,9.8c-6.7,13.1-15.9,24.8-27,34.4c1.7-9.6,2.6-19.4,2.6-29.2c0-29.8-7.8-59.1-22.8-84.8
	c-15-25.8-36.5-47.1-62.3-61.9c-5.8-3.3-12.9-3.4-18.7-0.2c-5.9,3.2-9.7,9.1-10.1,15.8c-1.1,18.3-5.9,36.3-14.1,52.7
	c-8.2,16.4-19.7,31-33.7,42.9l-4.5,3.6c-14.7,9.9-27.6,22-38.4,36c-22.5,28.3-35.5,62.9-37.4,99c-1.9,36.1,7.5,71.8,26.9,102.3
	c19.4,30.5,47.8,54.2,81.2,67.8c6,2.4,12.7,1.7,18.1-1.9c5.3-3.6,8.6-9.6,8.5-16.1c0-2.1-0.3-4.1-1-6c-4.3-16.3-5.6-33.2-3.7-49.9
	c18.3,34.5,47.7,61.9,83.4,77.7c4.4,2,9.3,2.2,13.8,0.7c37.8-12.2,70.3-37,92.1-70.2c21.8-33.2,31.5-72.9,27.6-112.4
	C411.7,226.8,394.4,189.8,366.5,161.4L366.5,161.4z M291,409.6c-34.1-17.3-59.3-48.2-69.2-85.2c-1.5-6.1-2.7-12.4-3.5-18.6
	c-0.6-4-2.3-7.7-5.1-10.6c-2.8-2.9-6.4-4.9-10.3-5.7c-1.2-0.2-2.5-0.4-3.7-0.4c-3.4,0-6.7,0.9-9.7,2.6c-2.9,1.7-5.4,4.1-7.1,7.1
	c-16,27.7-24.1,59.3-23.3,91.3c-28.5-22.2-47-54.8-51.2-90.7s6-71.9,28.5-100.2c8.5-11,18.7-20.5,30.2-28.2c0.5-0.3,1-0.7,1.4-1.1
	c0,0,5.7-4.7,5.9-4.9c27.6-23.3,47.2-54.6,56.1-89.6c21.1,19.5,35.1,45.4,40,73.7c4.8,28.3,0.2,57.4-13.2,82.8
	c-2.4,4.5-2.8,9.8-1.3,14.7c1.5,4.9,4.9,9,9.5,11.4c4.5,2.4,9.8,2.9,14.7,1.3c29.6-9.3,55.7-27.4,74.7-52
	c23.1,34.2,29.4,77.1,17.1,116.4C359.2,363.2,329.5,394.8,291,409.6L291,409.6z"/>
</svg>
